<svg xmlns="http://www.w3.org/2000/svg" xmlns:xlink="http://www.w3.org/1999/xlink" version="1.1" x="0px" y="0px" viewBox="0 0 100 100" style="enable-background:new 0 0 100 100;" xml:space="preserve"><circle r="45" cx="50" cy="50" fill="white" /><path d="M35.0615234,73.3554688c0.2216797,0.2885742,0.5849609,0.4321289,0.9414062,0.378418l7.9355469-1.1977539  l-1.1972656,7.9365234c-0.0546875,0.362793,0.09375,0.7265625,0.3876953,0.9472656  c0.1757812,0.1333008,0.3876953,0.2016602,0.6015625,0.2016602c0.140625,0,0.2832031-0.0297852,0.4150391-0.090332  l5.6767578-2.5922852l6.0175781,2.5854492c0.3320312,0.1420898,0.7167969,0.0942383,1.0048828-0.1264648  c0.2871094-0.2211914,0.4316406-0.5805664,0.3789062-0.9394531l-1.1787109-7.9384766l7.9384766,1.1787109  c0.3574219,0.0532227,0.7207031-0.0932617,0.9414062-0.3833008c0.2216797-0.2895508,0.2666016-0.6767578,0.1201172-1.0097656  l-2.5810547-5.84375l2.5966797-5.8505859c0.1484375-0.3339844,0.1025391-0.7216797-0.1191406-1.012207  c-0.2216797-0.2900391-0.5839844-0.4375-0.9443359-0.3823242l-7.9355469,1.1977539l1.1972656-7.9355469  c0.0537109-0.3613281-0.0927734-0.7231445-0.3828125-0.9448242c-0.2910156-0.2207031-0.6777344-0.2666016-1.0117188-0.1186523  l-5.8505859,2.5966797l-5.84375-2.581543c-0.3339844-0.1479492-0.7197266-0.1020508-1.0107422,0.1191406  c-0.2890625,0.2207031-0.4365234,0.5820312-0.3828125,0.9423828l1.1787109,7.9384766l-7.9384766-1.1787109  c-0.359375-0.0512695-0.7246094,0.0952148-0.9453125,0.3876953s-0.2626953,0.6821289-0.1113281,1.015625l2.5771484,5.6689453  l-2.6015625,6.0244141C34.7910156,72.6821289,34.8398438,73.0673828,35.0615234,73.3554688z M39.5488281,66.7104492  c0.1123047-0.2592773,0.109375-0.5532227-0.0078125-0.8105469l-2-4.3999023l7.4550781,1.1069336  c0.3134766,0.0463867,0.6298828-0.0581055,0.8535156-0.2822266s0.3291016-0.5405273,0.2822266-0.8540039l-1.1103516-7.4775391  l4.5888672,2.0273438c0.2587891,0.1142578,0.5527344,0.112793,0.8095703-0.0004883l4.5888672-2.0366211l-1.1279297,7.4726562  c-0.046875,0.3144531,0.0576172,0.6318359,0.2822266,0.8564453s0.5429688,0.3291016,0.8564453,0.2817383l7.4736328-1.1279297  l-2.0371094,4.5888672c-0.1142578,0.2578125-0.1142578,0.5517578-0.0009766,0.8095703l2.0273438,4.5893555L55.0039062,70.34375  c-0.3134766-0.046875-0.6298828,0.0585938-0.8535156,0.2822266c-0.2236328,0.2241211-0.3291016,0.5405273-0.2822266,0.8540039  l1.1132812,7.4990234l-4.7773438-2.0527344c-0.1259766-0.0541992-0.2597656-0.0810547-0.3945312-0.0810547  c-0.1416016,0-0.2832031,0.0302734-0.4150391,0.090332l-4.3994141,2.0092773l1.1240234-7.4501953  c0.046875-0.3144531-0.0576172-0.6318359-0.2822266-0.8564453c-0.2236328-0.2246094-0.5439453-0.3286133-0.8564453-0.2817383  l-7.4941406,1.1308594L39.5488281,66.7104492z"/><path d="M26.4755859,66.4755859C26.4755859,79.4467773,37.0283203,90,50,90s23.5244141-10.5532227,23.5244141-23.5244141  c0-11.5391846-8.3530884-21.1575928-19.3288574-23.1427002c1.2808838-1.1518555,2.0925293-2.8158569,2.0925293-4.6697998  c0-2.4823608-1.449707-4.6269531-3.5435181-5.6486816l17.0025024-9.2932129  c0.3212891-0.175293,0.5205078-0.5117188,0.5205078-0.8774414V11c0-0.5522461-0.4472656-1-1-1H30.7324219  c-0.5527344,0-1,0.4477539-1,1v11.84375c0,0.3657227,0.1992188,0.7021484,0.5205078,0.8774414l17.0025024,9.2932129  c-2.093811,1.0217285-3.5435181,3.1663208-3.5435181,5.6486816c0,1.8539429,0.8116455,3.5179443,2.0925293,4.6697998  C34.8286743,45.3179932,26.4755859,54.9364014,26.4755859,66.4755859z M50,32.2353516l-6.4003906-3.4984131V12h12.8007812  v16.7369385L50,32.2353516z M68.2675781,22.2504883l-9.8671875,5.3933105V12h9.8671875V22.2504883z M31.7324219,12h9.8671875  v15.6437988l-9.8671875-5.3933105V12z M45.7119141,38.6630859C45.7119141,36.2988281,47.6357422,34.375,50,34.375  s4.2880859,1.9238281,4.2880859,4.2880859S52.3642578,42.9506836,50,42.9506836S45.7119141,41.0273438,45.7119141,38.6630859z   M50,44.9506836c11.8681641,0,21.5244141,9.65625,21.5244141,21.5249023S61.8681641,88,50,88  s-21.5244141-9.6557617-21.5244141-21.5244141S38.1318359,44.9506836,50,44.9506836z"/></svg>
